<svg version="1" xmlns="http://www.w3.org/2000/svg" width="682.667" height="682.667" viewBox="0 0 512.000000 512.000000"><path d="M208.7 26.6c-.1.1-3.6.4-7.7.7-4.1.4-8.4.8-9.5 1.1-1.1.2-4 .7-6.5 1.1-17.5 2.7-43.7 11.8-58.9 20.4-3.6 2-7.3 4-8.1 4.3-3.2 1.3-17.8 12.1-25 18.5-20.9 18.7-36.9 42.9-47 70.8-1.7 4.9-3.6 9.9-4 11.1-.6 1.5-4.8 3.8-14.7 7.9-23.1 9.8-24.1 10.2-25.9 13-1.4 2.1-1.5 3.4-.8 6.3.8 3.1 2.9 5.3 14.4 14.5 7.4 6 14.5 11.6 15.7 12.5 1.9 1.5 2.2 2.9 2.8 13.2.8 16.4 1.3 21 4.1 34.6 15.5 76.6 74.5 135.9 158.8 159.4 11.1 3 27.1 6.3 36.1 7.4 8 1 12.5 1.7 12.5 2.2 0 .7-20.2 40.9-21 41.8-.4.4-11.7.9-25.1 1l-24.2.3-2.4 2.7c-3.7 4.3-2.8 10.2 2 12.8 3.2 1.8 121.9 2.1 126.3.3 3.8-1.6 6-6.2 4.7-10.2-1.5-4.7-6.3-6.4-17.2-6.1-6 .1-9.6-.2-9.8-.9-.2-.5 3.9-9.6 9.2-20.2 5.2-10.5 9.5-19.6 9.5-20.2 0-1.4 3.7-2.6 10.9-3.3 3.5-.4 9.5-1.3 13.2-2.1 3.8-.8 8.3-1.7 10-2 21.2-3.8 62.9-20.6 80.6-32.6 2.4-1.6 4.6-2.9 4.9-2.9.7 0 19.2-13.3 22.6-16.2 1.4-1.3 4.3-3.7 6.5-5.5 10-8.2 26.2-25.5 33.8-35.8 1.6-2.2 3.2-4.2 3.6-4.5 1.3-1 12.2-18.6 16.4-26.5 7-13.4 12-25.7 12-29.9 0-3-.6-4.3-3-6.2-1.7-1.3-4-2.4-5.2-2.4-1.2 0-7.5 1.8-14 3.9-6.5 2.2-13.4 4.2-15.3 4.5-1.9.3-6 1-9 1.7-6 1.2-33.4 1.9-39 1l-3.5-.6 8.3-6.9c8.9-7.4 10.2-9 10.2-13.1 0-6-4.9-10.5-11.4-10.5-1.8 0-8.1-.7-14.2-1.4-36.2-4.8-73.2-28.6-106.1-68.1-4.1-5-9.7-11.5-12.5-14.5-4.1-4.3-17.8-24.9-17.8-26.6 0-.7-9.4-15-13.8-20.9-6.2-8.3-18.7-20.4-27.4-26.5-11.6-8.2-24.7-13.8-43.6-18.9l-4.2-1.2 3-3.7c3.4-4.2 22-28.4 22-28.7 0-.2-6-.2-6.3.1zm60.2 419.6c-5.5 11.2-10.3 20.6-10.8 21.1-.7.7-15.1 1.7-15.1 1 0-.1 3.3-6.8 7.3-15 4.1-8.1 7.6-15.3 7.8-15.8.2-.6 1.7-3.4 3.2-6.3l2.7-5.2h14.9l-10 20.2z"/></svg>